<mxfile host="app.diagrams.net" agent="Mozilla/5.0 (Macintosh; Intel Mac OS X 10_15_7) AppleWebKit/537.36 (KHTML, like Gecko) Chrome/128.0.0.0 Safari/537.36" version="24.7.13">
  <diagram name="Seite-1" id="aGq3a8xR7B6TBEAPdAr0">
    <mxGraphModel dx="954" dy="527" grid="0" gridSize="10" guides="1" tooltips="1" connect="1" arrows="1" fold="1" page="1" pageScale="1" pageWidth="827" pageHeight="1169" math="0" shadow="0">
      <root>
        <mxCell id="0" />
        <mxCell id="1" parent="0" />
        <mxCell id="So0JlZX69A0ju8lxjdii-19" style="edgeStyle=orthogonalEdgeStyle;rounded=0;orthogonalLoop=1;jettySize=auto;html=1;entryX=0;entryY=0.5;entryDx=0;entryDy=0;endArrow=none;endFill=0;" edge="1" parent="1" source="So0JlZX69A0ju8lxjdii-1" target="So0JlZX69A0ju8lxjdii-6">
          <mxGeometry relative="1" as="geometry" />
        </mxCell>
        <mxCell id="So0JlZX69A0ju8lxjdii-20" style="edgeStyle=orthogonalEdgeStyle;rounded=0;orthogonalLoop=1;jettySize=auto;html=1;entryX=0;entryY=0.5;entryDx=0;entryDy=0;endArrow=none;endFill=0;" edge="1" parent="1" source="So0JlZX69A0ju8lxjdii-1" target="So0JlZX69A0ju8lxjdii-4">
          <mxGeometry relative="1" as="geometry">
            <Array as="points">
              <mxPoint x="123" y="205" />
              <mxPoint x="123" y="90" />
            </Array>
          </mxGeometry>
        </mxCell>
        <mxCell id="So0JlZX69A0ju8lxjdii-21" style="edgeStyle=orthogonalEdgeStyle;rounded=0;orthogonalLoop=1;jettySize=auto;html=1;entryX=0;entryY=0.5;entryDx=0;entryDy=0;endArrow=none;endFill=0;" edge="1" parent="1" source="So0JlZX69A0ju8lxjdii-1" target="So0JlZX69A0ju8lxjdii-5">
          <mxGeometry relative="1" as="geometry" />
        </mxCell>
        <mxCell id="So0JlZX69A0ju8lxjdii-1" value="Endnutzer" style="shape=umlActor;verticalLabelPosition=bottom;verticalAlign=top;html=1;outlineConnect=0;" vertex="1" parent="1">
          <mxGeometry x="26" y="175" width="30" height="60" as="geometry" />
        </mxCell>
        <mxCell id="So0JlZX69A0ju8lxjdii-2" value="" style="whiteSpace=wrap;html=1;aspect=fixed;fillColor=none;" vertex="1" parent="1">
          <mxGeometry x="160" y="20" width="400" height="400" as="geometry" />
        </mxCell>
        <mxCell id="So0JlZX69A0ju8lxjdii-3" value="GUI" style="text;align=center;fontStyle=1;verticalAlign=middle;spacingLeft=3;spacingRight=3;strokeColor=none;rotatable=0;points=[[0,0.5],[1,0.5]];portConstraint=eastwest;html=1;" vertex="1" parent="1">
          <mxGeometry x="320" y="20" width="80" height="26" as="geometry" />
        </mxCell>
        <mxCell id="So0JlZX69A0ju8lxjdii-4" value="Anzeige der letzten Suchabfragen" style="ellipse;whiteSpace=wrap;html=1;" vertex="1" parent="1">
          <mxGeometry x="195" y="60" width="130" height="60" as="geometry" />
        </mxCell>
        <mxCell id="So0JlZX69A0ju8lxjdii-5" value="Gezielte Suche nach spezifischen Daten" style="ellipse;whiteSpace=wrap;html=1;" vertex="1" parent="1">
          <mxGeometry x="190" y="290" width="140" height="70" as="geometry" />
        </mxCell>
        <mxCell id="So0JlZX69A0ju8lxjdii-6" value="Statistische Analyse der Suchabfragen" style="ellipse;whiteSpace=wrap;html=1;" vertex="1" parent="1">
          <mxGeometry x="190" y="170" width="140" height="70" as="geometry" />
        </mxCell>
        <mxCell id="So0JlZX69A0ju8lxjdii-7" value="Verwaltung und Ãœberwachung der Datenabfragen" style="ellipse;whiteSpace=wrap;html=1;" vertex="1" parent="1">
          <mxGeometry x="390" y="170" width="140" height="70" as="geometry" />
        </mxCell>
        <mxCell id="So0JlZX69A0ju8lxjdii-22" style="edgeStyle=orthogonalEdgeStyle;rounded=0;orthogonalLoop=1;jettySize=auto;html=1;entryX=1;entryY=0.5;entryDx=0;entryDy=0;endArrow=none;endFill=0;" edge="1" parent="1" source="So0JlZX69A0ju8lxjdii-8" target="So0JlZX69A0ju8lxjdii-7">
          <mxGeometry relative="1" as="geometry" />
        </mxCell>
        <mxCell id="So0JlZX69A0ju8lxjdii-8" value="Admininstrator" style="shape=umlActor;verticalLabelPosition=bottom;verticalAlign=top;html=1;" vertex="1" parent="1">
          <mxGeometry x="630" y="175" width="30" height="60" as="geometry" />
        </mxCell>
      </root>
    </mxGraphModel>
  </diagram>
</mxfile>
